<?xml version="1.0" encoding="UTF-8" standalone="no"?>
<!DOCTYPE svg PUBLIC "-//W3C//DTD SVG 1.1//EN" "http://www.w3.org/Graphics/SVG/1.1/DTD/svg11.dtd">
<svg width="100%" height="100%" viewBox="0 0 471 301" version="1.1" xmlns="http://www.w3.org/2000/svg" xmlns:xlink="http://www.w3.org/1999/xlink" xml:space="preserve" xmlns:serif="http://www.serif.com/" style="fill-rule:evenodd;clip-rule:evenodd;stroke-linejoin:round;stroke-miterlimit:2;">
    <g transform="matrix(1,0,0,-1,14.1732,300.472)">
        <path d="M442.205,300.472L0,300.472C-7.775,300.472 -14.173,294.074 -14.173,286.299L-14.173,14.173C-14.173,6.398 -7.775,0 -0,0L442.205,0C449.98,0 456.378,6.398 456.378,14.173L456.378,286.299C456.378,294.074 449.98,300.472 442.205,300.472Z" style="fill-rule:nonzero;"/>
    </g>
    <g transform="matrix(1,0,0,-1,14.1732,300.472)">
        <path d="M379.087,166.251L379.089,167.342L371.184,167.357L371.182,166.134L377.295,166.122L371.064,157.14L371.061,156.018L379.316,156.003L379.319,157.225L372.832,157.238L379.087,166.251Z" style="fill:white;fill-rule:nonzero;"/>
    </g>
    <g transform="matrix(1,0,0,-1,14.1732,300.472)">
        <path d="M430.215,89.701L429.989,89.701L425.862,88.152L425.862,86.843L428.767,87.91L428.767,78.308L430.215,78.308L430.215,89.701Z" style="fill:white;fill-rule:nonzero;"/>
    </g>
    <g transform="matrix(1,0,0,-1,14.1732,300.472)">
        <path d="M444.521,86.734L442.854,86.734L445.611,82.568L442.769,78.308L444.443,78.308L446.39,81.462L448.337,78.308L450.003,78.308L447.161,82.568L449.918,86.734L448.236,86.734L446.367,83.658L444.521,86.734Z" style="fill:white;fill-rule:nonzero;"/>
    </g>
    <g transform="matrix(1,0,0,-1,14.1732,300.472)">
        <path d="M405.304,96.786L403.637,96.786L406.394,92.62L403.551,88.36L405.226,88.36L407.173,91.514L409.119,88.36L410.786,88.36L407.944,92.62L410.7,96.786L409.018,96.786L407.149,93.71L405.304,96.786Z" style="fill:white;fill-rule:nonzero;"/>
    </g>
    <g transform="matrix(1,0,0,-1,14.1732,300.472)">
        <path d="M225.993,145.887L226.002,147.413L219.614,144.508L219.608,143.371L225.96,140.381L225.969,141.908L221.106,143.907L225.993,145.887Z" style="fill:white;fill-rule:nonzero;"/>
    </g>
    <g transform="matrix(1,0,0,-1,14.1732,300.472)">
        <path d="M253.08,80.509L252.518,80.457L251.964,80.386L251.425,80.276L251.165,80.201L250.911,80.109L250.665,79.998L250.425,79.87L249.963,79.572L249.518,79.236L249.08,78.88L248.722,78.449L248.383,78.009L248.082,77.553L247.952,77.317L247.839,77.074L247.744,76.822L247.666,76.564L247.551,76.031L247.475,75.481L247.418,74.923L247.471,74.361L247.543,73.806L247.654,73.268L247.73,73.007L247.824,72.753L247.935,72.507L248.064,72.268L248.363,71.806L248.701,71.361L249.058,70.923L249.493,70.563L249.937,70.223L250.397,69.922L250.636,69.792L250.881,69.679L251.134,69.584L251.395,69.506L251.933,69.392L252.487,69.317L253.049,69.261L253.611,69.314L254.165,69.386L254.703,69.498L254.964,69.574L255.218,69.667L255.464,69.779L255.703,69.907L256.164,70.206L256.61,70.544L257.047,70.901L257.407,71.337L257.747,71.78L258.049,72.24L258.179,72.479L258.292,72.724L258.387,72.977L258.465,73.238L258.579,73.776L258.655,74.33L258.711,74.892L258.657,75.45L258.583,76L258.471,76.535L258.395,76.793L258.301,77.045L258.189,77.289L258.06,77.526L257.762,77.983L257.425,78.425L257.069,78.858L256.633,79.216L256.19,79.555L255.73,79.855L255.491,79.984L255.246,80.096L254.993,80.19L254.732,80.267L254.195,80.38L253.641,80.454L253.08,80.509Z" style="fill:white;fill-rule:nonzero;"/>
    </g>
    <g transform="matrix(1,0,0,-1,14.1732,300.472)">
        <path d="M217.912,17.715L217.896,6.377L219.391,6.375L219.397,10.79L219.256,15.533L222.958,6.369L224.102,6.368L227.838,15.544L227.691,10.778L227.685,6.362L229.18,6.36L229.197,17.699L227.257,17.702L223.537,8.456L219.844,17.713L217.912,17.715Z" style="fill:white;fill-rule:nonzero;"/>
    </g>
    <g transform="matrix(1,0,0,-1,14.1732,300.472)">
        <path d="M168.295,99.208L169.9,99.208L169.9,99.302L167.236,104.114L167.694,104.328L167.913,104.448L168.12,104.585L168.312,104.741L168.491,104.915L168.829,105.29L169.075,105.719L169.181,105.939L169.265,106.166L169.323,106.401L169.36,106.642L169.401,107.136L169.339,107.853L169.276,108.199L169.175,108.528L169.024,108.836L168.83,109.126L168.369,109.675L167.69,110.077L167.34,110.244L166.977,110.371L166.601,110.454L166.214,110.504L165.422,110.547L161.668,110.547L161.668,99.208L163.171,99.208L163.171,103.795L165.835,103.795L168.295,99.208Z" style="fill:white;fill-rule:nonzero;"/>
    </g>
    <g transform="matrix(1,0,0,-1,14.1732,300.472)">
        <path d="M177.905,105.672L172.991,105.672L172.991,109.324L178.622,109.324L178.622,110.547L171.496,110.547L171.496,99.208L178.699,99.208L178.699,100.431L172.991,100.431L172.991,104.449L177.905,104.449L177.905,105.672Z" style="fill:white;fill-rule:nonzero;"/>
    </g>
    <g transform="matrix(1,0,0,-1,14.1732,300.472)">
        <path d="M198.987,141.026L197.5,141.026L197.5,132.25L191.776,141.026L190.273,141.026L190.273,129.688L191.776,129.688L191.776,138.425L197.484,129.688L198.987,129.688L198.987,141.026Z" style="fill:white;fill-rule:nonzero;"/>
    </g>
    <g transform="matrix(1,0,0,-1,14.1732,300.472)">
        <rect x="128.962" y="147.019" width="11.339" height="1.417" style="fill:white;fill-rule:nonzero;"/>
    </g>
    <g transform="matrix(1,0,0,-1,14.1732,300.472)">
        <path d="M71.798,84.064L67.169,78.395L71.798,72.726L72.896,73.622L68.999,78.395L72.896,83.168L71.798,84.064Z" style="fill:white;fill-rule:nonzero;"/>
    </g>
    <g transform="matrix(1,0,0,-1,14.1732,300.472)">
        <rect x="31.234" y="232.868" width="2.835" height="8.504" style="fill:white;fill-rule:nonzero;"/>
    </g>
    <g transform="matrix(1,0,0,-1,14.1732,300.472)">
        <rect x="63.768" y="72.726" width="1.417" height="11.339" style="fill:white;fill-rule:nonzero;"/>
    </g>
    <g transform="matrix(1,0,0,-1,14.1732,300.472)">
        <path d="M140.301,140.838L134.631,145.035L128.962,140.838L129.805,139.699L134.631,143.271L139.457,139.699L140.301,140.838Z" style="fill:white;fill-rule:nonzero;"/>
    </g>
    <g transform="matrix(1,0,0,-1,14.1732,300.472)">
        <path d="M128.745,16.646L134.414,11.922L140.084,16.668L139.19,17.735L134.433,13.752L129.652,17.735L128.745,16.646Z" style="fill:white;fill-rule:nonzero;"/>
    </g>
    <g transform="matrix(1,0,0,-1,14.1732,300.472)">
        <rect x="36.903" y="232.868" width="2.835" height="11.339" style="fill:white;fill-rule:nonzero;"/>
    </g>
    <g transform="matrix(1,0,0,-1,14.1732,300.472)">
        <rect x="42.572" y="232.868" width="2.835" height="14.173" style="fill:white;fill-rule:nonzero;"/>
    </g>
    <g transform="matrix(1,0,0,-1,14.1732,300.472)">
        <path d="M128.745,8.521L140.084,8.479L140.084,9.938L128.745,9.938L128.745,8.521Z" style="fill:white;fill-rule:nonzero;"/>
    </g>
    <g transform="matrix(1,0,0,-1,14.1732,300.472)">
        <rect x="186.044" y="129.688" width="1.495" height="11.339" style="fill:white;fill-rule:nonzero;"/>
    </g>
    <g transform="matrix(1,0,0,-1,14.1732,300.472)">
        <path d="M172.011,141.026L172.011,129.688L173.507,129.688L173.507,134.103L173.359,138.846L177.073,129.688L178.218,129.688L181.94,138.869L181.8,134.103L181.8,129.688L183.296,129.688L183.296,141.026L181.356,141.026L177.65,131.775L173.943,141.026L172.011,141.026Z" style="fill:white;fill-rule:nonzero;"/>
    </g>
    <g transform="matrix(1,0,0,-1,14.1732,300.472)">
        <path d="M181.09,110.547L179.463,110.547L183.66,99.208L184.984,99.208L189.189,110.547L187.554,110.547L184.314,101.194L181.09,110.547Z" style="fill:white;fill-rule:nonzero;"/>
    </g>
    <g transform="matrix(1,0,0,-1,14.1732,300.472)">
        <path d="M196.069,24.257L191.155,24.257L191.155,27.909L196.785,27.909L196.785,29.132L189.66,29.132L189.66,17.793L196.863,17.793L196.863,19.016L191.155,19.016L191.155,23.034L196.069,23.034L196.069,24.257Z" style="fill:white;fill-rule:nonzero;"/>
    </g>
    <g transform="matrix(1,0,0,-1,14.1732,300.472)">
        <rect x="249.86" y="17.62" width="1.495" height="11.339" style="fill:white;fill-rule:nonzero;"/>
    </g>
    <g transform="matrix(1,0,0,-1,14.1732,300.472)">
        <path d="M249.342,131.046L249.342,129.551L255.992,132.502L255.992,133.639L249.342,136.583L249.342,135.103L254.489,133.086L249.342,131.046Z" style="fill:white;fill-rule:nonzero;"/>
    </g>
    <g transform="matrix(1,0,0,-1,14.1732,300.472)">
        <path d="M333.709,108.452L332.261,108.452L332.261,105.143L329.099,105.143L329.099,103.78L332.261,103.78L332.261,100.198L333.709,100.198L333.709,103.78L336.871,103.78L336.871,105.143L333.709,105.143L333.709,108.452Z" style="fill:white;fill-rule:nonzero;"/>
    </g>
    <g transform="matrix(1,0,0,-1,14.1732,300.472)">
        <path d="M399.954,99.753L399.728,99.753L395.6,98.204L395.6,96.895L398.505,97.962L398.505,88.36L399.954,88.36L399.954,99.753Z" style="fill:white;fill-rule:nonzero;"/>
    </g>
    <g transform="matrix(1,0,0,-1,14.1732,300.472)">
        <path d="M441.546,85.013L441.506,85.966L441.458,86.435L441.376,86.895L441.248,87.343L441.076,87.779L440.658,88.63L440.378,88.902L440.091,89.157L439.788,89.378L439.463,89.55L439.111,89.664L438.74,89.735L437.964,89.802L437.178,89.731L436.803,89.657L436.449,89.538L436.122,89.36L435.819,89.131L435.532,88.868L435.254,88.588L434.839,87.71L434.669,87.261L434.544,86.801L434.465,86.329L434.421,85.849L434.389,84.873L434.389,82.949L434.436,82.002L434.487,81.536L434.572,81.079L434.702,80.635L434.875,80.202L435.293,79.356L435.57,79.079L435.855,78.819L436.155,78.593L436.479,78.417L436.83,78.299L437.202,78.225L437.979,78.152L438.766,78.226L439.141,78.302L439.494,78.423L439.819,78.603L440.12,78.834L440.405,79.1L440.682,79.383L441.097,80.273L441.267,80.728L441.392,81.194L441.471,81.671L441.515,82.157L441.546,83.144L441.546,85.013Z" style="fill:white;fill-rule:nonzero;"/>
    </g>
    <path d="M452.141,212.24C455.072,212.24 455.07,221.01 452.141,220.902C449.21,220.794 449.21,212.24 452.141,212.24Z"/>
    <g transform="matrix(1,0,0,-1,14.1732,300.472)">
        <path d="M429.622,167.245L427.869,167.249L431.449,161.619L427.762,155.91L429.53,155.907L432.342,160.325L435.121,155.896L436.897,155.893L433.24,161.616L436.833,167.232L435.073,167.235L432.347,162.895L429.622,167.245Z" style="fill:white;fill-rule:nonzero;"/>
    </g>
    <g transform="matrix(1,0,0,-1,14.1732,300.472)">
        <path d="M405.771,239.482L411.559,242.603L410.585,244.278L405.056,241.05L405.164,246.518L403.199,246.518L403.289,241.051L397.777,244.296L396.786,242.621L402.588,239.467L396.785,236.316L397.775,234.64L403.273,237.898L403.196,232.415L405.161,232.415L405.071,237.898L410.583,234.653L411.558,236.328L405.771,239.482Z" style="fill:white;fill-rule:nonzero;"/>
    </g>
    <g transform="matrix(1,0,0,-1,14.1732,300.472)">
        <path d="M297.485,52.822C297.485,48.157 301.324,44.318 305.989,44.318C310.654,44.318 314.493,48.157 314.493,52.822C314.493,57.488 310.654,61.326 305.989,61.326C301.324,61.326 297.485,57.488 297.485,52.822Z" style="fill:white;fill-rule:nonzero;"/>
    </g>
    <g transform="matrix(1,0,0,-1,14.1732,300.472)">
        <path d="M297.518,78.537C297.518,73.872 301.356,70.033 306.021,70.033C310.687,70.033 314.525,73.872 314.525,78.537C314.525,83.202 310.687,87.041 306.021,87.041C301.356,87.041 297.518,83.202 297.518,78.537L297.518,78.537Z" style="fill:white;fill-rule:nonzero;"/>
    </g>
    <g transform="matrix(1,0,0,-1,14.1732,300.472)">
        <path d="M270.932,78.521C270.932,73.856 274.771,70.017 279.436,70.017C284.101,70.017 287.94,73.856 287.94,78.521C287.94,83.186 284.101,87.025 279.436,87.025C274.771,87.025 270.932,83.186 270.932,78.521L270.932,78.521Z" style="fill:white;fill-rule:nonzero;"/>
    </g>
    <g transform="matrix(1,0,0,-1,14.1732,300.472)">
        <path d="M151.184,78.475C151.184,73.81 155.022,69.971 159.688,69.971C164.353,69.971 168.191,73.81 168.191,78.475C168.191,83.14 164.353,86.979 159.688,86.979C155.022,86.979 151.184,83.14 151.184,78.475L151.184,78.475Z" style="fill:white;fill-rule:nonzero;"/>
    </g>
    <g transform="matrix(1,0,0,-1,14.1732,300.472)">
        <path d="M99.889,78.41C99.889,73.744 103.728,69.906 108.393,69.906C113.058,69.906 116.897,73.744 116.897,78.41C116.897,83.075 113.058,86.914 108.393,86.914C103.728,86.914 99.889,83.075 99.889,78.41Z" style="fill:white;fill-rule:nonzero;"/>
    </g>
    <g transform="matrix(1,0,0,-1,14.1732,300.472)">
        <path d="M78.92,78.395C78.92,74.508 82.119,71.309 86.007,71.309C89.894,71.309 93.093,74.508 93.093,78.395C93.093,82.283 89.894,85.482 86.007,85.482C82.119,85.482 78.92,82.283 78.92,78.395Z" style="fill:white;fill-rule:nonzero;"/>
    </g>
    <g transform="matrix(1,0,0,-1,14.1732,300.472)">
        <path d="M127.545,126.264C127.545,122.376 130.744,119.177 134.631,119.177C138.519,119.177 141.718,122.376 141.718,126.264C141.718,130.151 138.519,133.35 134.631,133.35C130.744,133.35 127.545,130.151 127.545,126.264Z" style="fill:white;fill-rule:nonzero;"/>
    </g>
    <g transform="matrix(1,0,0,-1,14.1732,300.472)">
        <path d="M405.149,76.304L405.149,84.142L402.314,84.142L402.314,76.304C389.509,75.526 379.611,64.349 380.389,51.544C381.166,38.738 392.343,28.841 405.149,29.618C417.954,30.396 427.852,41.573 427.074,54.378C426.758,59.593 424.703,64.554 421.239,68.465L426.782,74.007L424.778,76.012L419.235,70.469C415.324,73.932 410.363,75.987 405.149,76.304Z" style="fill:white;fill-rule:nonzero;"/>
    </g>
    <g transform="matrix(1,0,0,-1,14.1732,300.472)">
        <path d="M421.324,145.9L426.866,151.442L424.862,153.447L419.32,147.904C410.512,155.704 397.12,155.704 388.312,147.904L382.77,153.447L380.765,151.442L386.308,145.9C377.803,136.295 378.708,121.393 388.312,112.888C397.917,104.383 412.819,105.288 421.324,114.893C429.124,123.7 429.124,137.092 421.324,145.9Z" style="fill:white;fill-rule:nonzero;"/>
    </g>
    <g transform="matrix(1,0,0,-1,14.1732,300.472)">
        <path d="M394.019,270.392C394.019,264.949 398.497,260.471 403.94,260.471C409.383,260.471 413.861,264.949 413.861,270.392C413.861,275.835 409.383,280.313 403.94,280.313C398.497,280.313 394.019,275.835 394.019,270.392L394.019,270.392Z" style="fill:white;fill-rule:nonzero;"/>
    </g>
    <g transform="matrix(1,0,0,-1,14.1732,300.472)">
        <path d="M174.804,78.457C174.804,74.57 178.003,71.371 181.891,71.371C185.778,71.371 188.977,74.57 188.977,78.457C188.977,82.345 185.778,85.544 181.891,85.544C178.003,85.544 174.804,82.345 174.804,78.457Z" style="fill:white;fill-rule:nonzero;"/>
    </g>
    <g transform="matrix(1,0,0,-1,14.1732,300.472)">
        <path d="M127.407,30.76C127.407,26.872 130.606,23.673 134.493,23.673C138.381,23.673 141.58,26.872 141.58,30.76C141.58,34.647 138.381,37.846 134.493,37.846C130.606,37.846 127.407,34.647 127.407,30.76Z" style="fill:white;fill-rule:nonzero;"/>
    </g>
    <g transform="matrix(1,0,0,-1,14.1732,300.472)">
        <path d="M238.876,35.458L244.418,29.916L246.423,31.92L240.88,37.463C249.385,47.067 248.48,61.969 238.876,70.474C229.271,78.979 214.369,78.075 205.864,68.47C198.064,59.662 198.064,46.27 205.864,37.463L200.322,31.92L202.326,29.916L207.868,35.458C211.779,31.995 216.74,29.94 221.955,29.623L221.955,21.785L224.789,21.785L224.789,29.623C230.004,29.94 234.965,31.995 238.876,35.458Z" style="fill:white;fill-rule:nonzero;"/>
    </g>
    <g transform="matrix(1,0,0,-1,14.1732,300.472)">
        <rect x="119.906" y="170.929" width="202.394" height="69.165" style="fill:white;fill-rule:nonzero;"/>
    </g>
    <g transform="matrix(1,0,0,-1,14.1732,300.472)">
        <path d="M28.399,270.71C28.399,265.268 32.878,260.789 38.32,260.789C43.763,260.789 48.241,265.268 48.241,270.71C48.241,276.153 43.763,280.632 38.32,280.632C32.878,280.632 28.399,276.153 28.399,270.71Z" style="fill:white;fill-rule:nonzero;"/>
    </g>
    <g transform="matrix(1,0,0,-1,14.1732,300.472)">
        <path d="M126.096,104.522C126.096,99.857 129.935,96.018 134.6,96.018C139.265,96.018 143.104,99.857 143.104,104.522C143.104,109.187 139.265,113.026 134.6,113.026C129.935,113.026 126.096,109.187 126.096,104.522L126.096,104.522Z" style="fill:white;fill-rule:nonzero;"/>
    </g>
    <g transform="matrix(1,0,0,-1,14.1732,300.472)">
        <path d="M126.058,52.869C126.058,48.204 129.897,44.365 134.562,44.365C139.227,44.365 143.066,48.204 143.066,52.869C143.066,57.534 139.227,61.373 134.562,61.373C129.897,61.373 126.058,57.534 126.058,52.869L126.058,52.869Z" style="fill:white;fill-rule:nonzero;"/>
    </g>
    <g transform="matrix(1,0,0,-1,14.1732,300.472)">
        <path d="M297.55,104.387C297.55,99.722 301.389,95.883 306.054,95.883C310.719,95.883 314.558,99.722 314.558,104.387C314.558,109.052 310.719,112.891 306.054,112.891C301.389,112.891 297.55,109.052 297.55,104.387Z" style="fill:white;fill-rule:nonzero;"/>
    </g>
    <g transform="matrix(1,0,0,-1,14.1732,300.472)">
        <path d="M324.497,78.555C324.497,73.89 328.335,70.051 333,70.051C337.666,70.051 341.504,73.89 341.504,78.555C341.504,83.22 337.666,87.059 333,87.059C328.335,87.059 324.497,83.22 324.497,78.555Z" style="fill:white;fill-rule:nonzero;"/>
    </g>
    <g transform="matrix(1,0,0,-1,14.1732,300.472)">
        <rect x="275.467" y="52.185" width="7.937" height="1.276" style="fill:white;fill-rule:nonzero;"/>
    </g>
    <g transform="matrix(1,0,0,-1,14.1732,300.472)">
        <path d="M238.929,87.007L244.472,81.465L246.476,83.469L240.934,89.012C248.733,97.82 248.733,111.211 240.934,120.019L246.476,125.562L244.472,127.566L238.929,122.024C235.018,125.487 230.057,127.542 224.843,127.858L224.843,135.697L222.008,135.697L222.008,127.858C216.794,127.542 211.833,125.487 207.922,122.024L202.379,127.566L200.375,125.562L205.918,120.019C202.454,116.108 200.399,111.147 200.083,105.933L192.245,105.933L192.245,103.098L200.083,103.098C200.399,97.884 202.454,92.923 205.918,89.012L200.375,83.469L202.379,81.465L207.922,87.007C216.73,79.208 230.121,79.208 238.929,87.007Z" style="fill:white;fill-rule:nonzero;"/>
    </g>
    <path d="M177.349,195.595C177.323,195.595 177.33,191.386 177.359,191.386C180.337,191.402 182.141,191.51 182.151,193.352C182.163,195.561 179.989,195.603 177.349,195.595Z"/>
</svg>
